<?xml version="1.0" encoding="UTF-8"?>
<!DOCTYPE svg PUBLIC "-//W3C//DTD SVG 1.1//EN" "http://www.w3.org/Graphics/SVG/1.1/DTD/svg11.dtd">
<svg xmlns="http://www.w3.org/2000/svg" version="1.1" width="261px" height="74px" style="shape-rendering:geometricPrecision; text-rendering:geometricPrecision; image-rendering:optimizeQuality; fill-rule:evenodd; clip-rule:evenodd" xmlns:xlink="http://www.w3.org/1999/xlink">
<g><path style="opacity:1" fill="#f9f9f9" d="M -0.5,-0.5 C 86.5,-0.5 173.5,-0.5 260.5,-0.5C 260.5,24.1667 260.5,48.8333 260.5,73.5C 173.5,73.5 86.5,73.5 -0.5,73.5C -0.5,48.8333 -0.5,24.1667 -0.5,-0.5 Z"/></g>
<g><path style="opacity:1" fill="#040404" d="M 2.5,2.5 C 87.5,2.5 172.5,2.5 257.5,2.5C 257.5,25.8333 257.5,49.1667 257.5,72.5C 172.5,72.5 87.5,72.5 2.5,72.5C 2.5,49.1667 2.5,25.8333 2.5,2.5 Z"/></g>
<g><path style="opacity:1" fill="#fafafa" d="M 4.5,5.5 C 87.8333,5.5 171.167,5.5 254.5,5.5C 254.5,26.8333 254.5,48.1667 254.5,69.5C 171.167,69.5 87.8333,69.5 4.5,69.5C 4.5,48.1667 4.5,26.8333 4.5,5.5 Z"/></g>
<g><path style="opacity:1" fill="#010101" d="M 11.5,13.5 C 39.8333,13.5 68.1667,13.5 96.5,13.5C 96.5,29.8333 96.5,46.1667 96.5,62.5C 68.1667,62.5 39.8333,62.5 11.5,62.5C 11.5,46.1667 11.5,29.8333 11.5,13.5 Z"/></g>
<g><path style="opacity:1" fill="#efefef" d="M 45.5,24.5 C 46.8333,24.5 48.1667,24.5 49.5,24.5C 52.4322,32.9569 55.7655,41.2902 59.5,49.5C 58.1667,50.8333 56.8333,50.8333 55.5,49.5C 54.5412,45.0238 51.7078,43.3571 47,44.5C 42.6515,43.8946 39.8182,45.5612 38.5,49.5C 37.675,50.3857 36.675,50.719 35.5,50.5C 38.2744,41.6179 41.6078,32.9512 45.5,24.5 Z"/></g>
<g><path style="opacity:1" fill="#dadada" d="M 66.5,24.5 C 67.8333,24.5 69.1667,24.5 70.5,24.5C 70.5,33.1667 70.5,41.8333 70.5,50.5C 69.1667,50.5 67.8333,50.5 66.5,50.5C 66.5,41.8333 66.5,33.1667 66.5,24.5 Z"/></g>
<g><path style="opacity:1" fill="#0c0c0c" d="M 119.5,23.5 C 127.892,22.6929 133.892,26.0263 137.5,33.5C 134.894,34.6517 132.227,34.8184 129.5,34C 125.508,29.2603 121.675,29.427 118,34.5C 116.877,37.9563 117.71,40.7897 120.5,43C 126.038,41.8577 131.705,41.191 137.5,41C 133.698,49.8953 127.031,52.8953 117.5,50C 110.915,45.5316 108.748,39.365 111,31.5C 113.074,27.9231 115.907,25.2565 119.5,23.5 Z"/></g>
<g><path style="opacity:1" fill="#070707" d="M 148.5,24.5 C 151.448,24.2229 154.281,24.5562 157,25.5C 160.069,33.5397 163.235,41.5397 166.5,49.5C 165.167,49.8333 163.833,50.1667 162.5,50.5C 159.494,48.8647 156.327,47.5314 153,46.5C 149.406,45.717 147.573,47.0504 147.5,50.5C 144.833,50.5 142.167,50.5 139.5,50.5C 142.5,41.8333 145.5,33.1667 148.5,24.5 Z"/></g>
<g><path style="opacity:1" fill="#0b0b0b" d="M 174.5,23.5 C 179.969,22.7101 184.469,24.3768 188,28.5C 188.49,29.7932 188.657,31.1266 188.5,32.5C 186.076,32.8076 183.743,32.4742 181.5,31.5C 179.5,28.8333 177.5,28.8333 175.5,31.5C 175.977,32.4776 176.643,33.3109 177.5,34C 182.012,34.4994 185.845,36.3327 189,39.5C 190.027,43.1799 189.194,46.3466 186.5,49C 182.289,50.5339 177.956,50.8673 173.5,50C 170.211,48.5897 168.544,46.0897 168.5,42.5C 172.535,41.9003 176.035,42.9003 179,45.5C 181.5,44.6667 182,43.1667 180.5,41C 175.511,40.6873 171.677,38.5207 169,34.5C 168.333,32.5 168.333,30.5 169,28.5C 170.73,26.5981 172.563,24.9314 174.5,23.5 Z"/></g>
<g><path style="opacity:1" fill="#0b0b0b" d="M 198.5,23.5 C 203.969,22.7101 208.469,24.3768 212,28.5C 212.49,29.7932 212.657,31.1266 212.5,32.5C 210.076,32.8076 207.743,32.4742 205.5,31.5C 203.5,28.8333 201.5,28.8333 199.5,31.5C 199.977,32.4776 200.643,33.3109 201.5,34C 206.012,34.4994 209.845,36.3327 213,39.5C 214.027,43.1799 213.194,46.3466 210.5,49C 206.289,50.5339 201.956,50.8673 197.5,50C 194.211,48.5897 192.544,46.0897 192.5,42.5C 196.535,41.9003 200.035,42.9003 203,45.5C 205.5,44.6667 206,43.1667 204.5,41C 199.511,40.6873 195.677,38.5207 193,34.5C 192.333,32.5 192.333,30.5 193,28.5C 194.73,26.5981 196.563,24.9314 198.5,23.5 Z"/></g>
<g><path style="opacity:1" fill="#0c0c0c" d="M 226.5,23.5 C 241.121,23.4276 246.621,30.4276 243,44.5C 238.116,50.2197 231.95,52.0531 224.5,50C 217.547,46.1579 215.047,40.3246 217,32.5C 219.256,28.47 222.422,25.47 226.5,23.5 Z"/></g>
<g><path style="opacity:1" fill="#0f0f0f" d="M 46.5,29.5 C 48.8531,33.0356 50.8531,36.8689 52.5,41C 49.1177,41.8236 45.7844,41.657 42.5,40.5C 44.1254,36.9205 45.4587,33.2538 46.5,29.5 Z"/></g>
<g><path style="opacity:1" fill="#f4f4f4" d="M 227.5,30.5 C 236.571,30.8587 238.904,35.0253 234.5,43C 226,45.1667 222.833,42 225,33.5C 226.045,32.6266 226.878,31.6266 227.5,30.5 Z"/></g>
<g><path style="opacity:1" fill="#dedede" d="M 152.5,33.5 C 154.267,35.7916 155.267,38.4582 155.5,41.5C 153.833,41.5 152.167,41.5 150.5,41.5C 150.584,38.6726 151.25,36.006 152.5,33.5 Z"/></g>
</svg>
